<svg width="50" height="33" viewBox="0 0 50 33" fill="none" xmlns="http://www.w3.org/2000/svg">
<path d="M27.5 28.875V26.125C27.5 24.6663 26.9205 23.2674 25.8891 22.2359C24.8576 21.2045 23.4587 20.625 22 20.625H11C9.54131 20.625 8.14236 21.2045 7.11091 22.2359C6.07946 23.2674 5.5 24.6663 5.5 26.125V28.875" stroke="#B0B6B1" stroke-width="2" stroke-linecap="round" stroke-linejoin="round"/>
<path d="M16.5 15.125C19.5376 15.125 22 12.6626 22 9.625C22 6.58743 19.5376 4.125 16.5 4.125C13.4624 4.125 11 6.58743 11 9.625C11 12.6626 13.4624 15.125 16.5 15.125Z" stroke="#B0B6B1" stroke-width="2" stroke-linecap="round" stroke-linejoin="round"/>
<path d="M44.5 28.875V26.125C44.5 24.6663 43.9205 23.2674 42.8891 22.2359C41.8576 21.2045 40.4587 20.625 39 20.625H28C26.5413 20.625 25.1424 21.2045 24.1109 22.2359C23.0795 23.2674 22.5 24.6663 22.5 26.125V28.875" stroke="#B0B6B1" stroke-width="2" stroke-linecap="round" stroke-linejoin="round"/>
<path d="M33.5 15.125C36.5376 15.125 39 12.6626 39 9.625C39 6.58743 36.5376 4.125 33.5 4.125C30.4624 4.125 28 6.58743 28 9.625C28 12.6626 30.4624 15.125 33.5 15.125Z" stroke="#B0B6B1" stroke-width="2" stroke-linecap="round" stroke-linejoin="round"/>
</svg>
